<svg width="20" height="20" viewBox="0 0 20 20" fill="none" xmlns="http://www.w3.org/2000/svg">
<path d="M19.3115 9.8662L16.3209 7.50604C16.2959 7.48636 16.2658 7.47413 16.2341 7.47074C16.2025 7.46735 16.1705 7.47295 16.1419 7.48689C16.1133 7.50084 16.0892 7.52256 16.0723 7.54957C16.0555 7.57659 16.0466 7.6078 16.0467 7.63964V9.15604H10.8435V3.95292H12.3623C12.5029 3.95292 12.5826 3.78886 12.4959 3.6787L10.1334 0.688075C10.1178 0.667838 10.0977 0.651454 10.0747 0.640181C10.0518 0.628908 10.0265 0.623047 10.001 0.623047C9.97539 0.623047 9.95016 0.628908 9.9272 0.640181C9.90425 0.651454 9.88418 0.667838 9.86854 0.688075L7.50604 3.6787C7.48636 3.70372 7.47413 3.73378 7.47074 3.76544C7.46735 3.79709 7.47295 3.82906 7.48689 3.85768C7.50084 3.8863 7.52256 3.91042 7.54957 3.92726C7.57659 3.9441 7.6078 3.953 7.63964 3.95292H9.15604V9.15604H3.95292V7.63729C3.95292 7.49667 3.78886 7.41698 3.6787 7.5037L0.688075 9.8662C0.667838 9.88184 0.651454 9.9019 0.640181 9.92486C0.628908 9.94781 0.623047 9.97305 0.623047 9.99862C0.623047 10.0242 0.628908 10.0494 0.640181 10.0724C0.651454 10.0953 0.667838 10.1154 0.688075 10.131L3.67636 12.4935C3.78651 12.5803 3.95058 12.5029 3.95058 12.36V10.8435H9.1537V16.0467H7.63495C7.49433 16.0467 7.41464 16.2107 7.50136 16.3209L9.86386 19.3092C9.93183 19.3959 10.0631 19.3959 10.1287 19.3092L12.4912 16.3209C12.5779 16.2107 12.5006 16.0467 12.3576 16.0467H10.8435V10.8435H16.0467V12.3623C16.0467 12.5029 16.2107 12.5826 16.3209 12.4959L19.3092 10.1334C19.3293 10.1175 19.3457 10.0973 19.357 10.0743C19.3683 10.0513 19.3743 10.026 19.3745 10.0004C19.3748 9.9747 19.3692 9.94932 19.3583 9.9261C19.3474 9.90288 19.3314 9.8824 19.3115 9.8662Z" fill="#0050B3"/>
</svg>
